<?xml version="1.0" encoding="utf-8"?>
<!-- Generator: Adobe Illustrator 20.1.0, SVG Export Plug-In . SVG Version: 6.00 Build 0)  -->
<svg version="1.1" id="BACKGROUND_2" xmlns="http://www.w3.org/2000/svg" xmlns:xlink="http://www.w3.org/1999/xlink" x="0px"
	 y="0px" viewBox="0 0 750 500" style="enable-background:new 0 0 750 500;" xml:space="preserve">
<style type="text/css">
	.st0{fill:#6D6E71;}
	.st1{opacity:0.1;fill:#231F20;enable-background:new    ;}
	.st2{fill:#B2875D;}
	.st3{opacity:0.1;}
	.st4{fill:#FFFFFF;}
	.st5{fill:#C49A6C;}
	.st6{fill:#414042;}
</style>
<g>
	<g>
		<g>
			<path class="st0" d="M336.8,280.5l-5.1,8.3v4.8h-0.8v-4.7l-5.2-8.3h0.8l4.8,7.3l4.7-7.3L336.8,280.5L336.8,280.5z"/>
			<path class="st0" d="M347.6,281.3c1,0.6,1.9,1.4,2.5,2.4s0.9,2.1,0.9,3.3s-0.3,2.3-0.9,3.3s-1.4,1.8-2.5,2.4
				c-1,0.6-2.2,0.9-3.4,0.9c-1.2,0-2.3-0.3-3.4-0.9c-1-0.6-1.9-1.4-2.5-2.4s-0.9-2.1-0.9-3.3s0.3-2.3,0.9-3.3s1.4-1.8,2.5-2.4
				c1-0.6,2.2-0.9,3.4-0.9S346.5,280.7,347.6,281.3z M341.2,281.9c-0.9,0.5-1.6,1.2-2.2,2.1c-0.5,0.9-0.8,1.9-0.8,2.9s0.3,2,0.8,2.9
				s1.3,1.6,2.2,2.1s1.9,0.8,3,0.8s2.1-0.3,3-0.8s1.6-1.2,2.2-2.1s0.8-1.9,0.8-2.9s-0.3-2-0.8-2.9s-1.3-1.6-2.2-2.1
				c-0.9-0.5-1.9-0.8-3-0.8S342.1,281.4,341.2,281.9z"/>
			<path class="st0" d="M356.2,291.6c0.8,0.8,1.9,1.2,3.3,1.2s2.5-0.4,3.3-1.2c0.8-0.8,1.2-1.9,1.2-3.4v-7.8h0.8v7.8
				c0,1.7-0.5,3-1.4,3.9s-2.2,1.4-3.9,1.4c-1.7,0-3-0.5-3.9-1.4s-1.4-2.3-1.4-3.9v-7.8h0.8v7.8C355.1,289.7,355.4,290.8,356.2,291.6
				z"/>
			<path class="st0" d="M375.4,280.5h0.8v6.1h8.8v-6.1h0.8v13H385v-6.1h-8.8v6.1h-0.8L375.4,280.5L375.4,280.5z"/>
			<path class="st0" d="M400.6,293.5l-1.7-3.7h-7.6l-1.7,3.7h-0.9l5.9-13h0.8l6,13H400.6z M391.6,289h6.9l-3.5-7.6L391.6,289z"/>
			<path class="st0" d="M401.5,280.5h0.9l4.9,12.1l5-12.1h0.9l-5.4,13H407L401.5,280.5z"/>
			<path class="st0" d="M416.1,280.5h8.4v0.8h-7.6v5.2h6.8v0.8h-6.8v5.5h7.9v0.8h-8.6L416.1,280.5L416.1,280.5z"/>
			<path class="st0" d="M317.1,301.4c0.8,0.3,1.3,0.6,1.8,1.1s0.6,1.1,0.6,1.8c0,0.7-0.2,1.2-0.6,1.8c-0.4,0.5-0.9,0.9-1.6,1.1
				c0.8,0.2,1.4,0.5,1.9,1.1s0.7,1.3,0.7,2.2c0,0.7-0.2,1.4-0.6,1.9c-0.4,0.6-1,1-1.8,1.3s-1.7,0.4-2.7,0.4h-6.7V301h6.4
				C315.5,301,316.4,301.2,317.1,301.4z M315.2,305.9c0.2-0.2,0.3-0.5,0.3-0.8s-0.1-0.6-0.3-0.8s-0.5-0.3-0.9-0.3H312v2.2h2.3
				C314.7,306.2,315,306.1,315.2,305.9z M315.5,310.9c0.3-0.2,0.4-0.5,0.4-0.9s-0.1-0.6-0.4-0.8s-0.7-0.3-1.2-0.3H312v2.4h2.3
				C314.8,311.2,315.2,311.1,315.5,310.9z"/>
			<path class="st0" d="M322,301h10.7v3h-6.8v2h6.2v3h-6.2v2.1h7v3H322V301z"/>
			<path class="st0" d="M335.3,301H346v3h-6.8v2h6.2v3h-6.2v2.1h7v3h-10.9L335.3,301L335.3,301z"/>
			<path class="st0" d="M357.5,301h3.5v13.1h-3.3l-5.5-7.3v7.3h-3.6V301h3.3l5.5,7.3V301H357.5z"/>
			<path class="st0" d="M377.3,301.4c0.8,0.3,1.3,0.6,1.8,1.1s0.6,1.1,0.6,1.8c0,0.7-0.2,1.2-0.6,1.8c-0.4,0.5-0.9,0.9-1.6,1.1
				c0.8,0.2,1.4,0.5,1.9,1.1s0.7,1.3,0.7,2.2c0,0.7-0.2,1.4-0.6,1.9c-0.4,0.6-1,1-1.8,1.3s-1.7,0.4-2.7,0.4h-6.7V301h6.4
				C375.7,301,376.6,301.2,377.3,301.4z M375.4,305.9c0.2-0.2,0.3-0.5,0.3-0.8s-0.1-0.6-0.3-0.8s-0.5-0.3-0.9-0.3h-2.3v2.2h2.3
				C374.8,306.2,375.2,306.1,375.4,305.9z M375.6,310.9c0.3-0.2,0.4-0.5,0.4-0.9s-0.1-0.6-0.4-0.8s-0.7-0.3-1.2-0.3h-2.3v2.4h2.3
				C375,311.2,375.4,311.1,375.6,310.9z"/>
			<path class="st0" d="M392.3,301.7c1.1,0.6,1.9,1.4,2.6,2.4c0.6,1,0.9,2.2,0.9,3.5s-0.3,2.5-0.9,3.5s-1.5,1.9-2.6,2.4
				c-1.1,0.6-2.3,0.9-3.6,0.9c-1.4,0-2.6-0.3-3.7-0.9s-1.9-1.4-2.5-2.4s-0.9-2.2-0.9-3.5s0.3-2.4,0.9-3.5c0.6-1,1.5-1.8,2.5-2.4
				s2.3-0.9,3.7-0.9C389.9,300.8,391.2,301.1,392.3,301.7z M387.1,304.5c-0.5,0.3-0.9,0.7-1.2,1.3c-0.3,0.5-0.4,1.1-0.4,1.8
				s0.1,1.3,0.4,1.8s0.7,1,1.2,1.3s1,0.5,1.6,0.5s1.1-0.2,1.6-0.5s0.9-0.7,1.1-1.3c0.3-0.5,0.4-1.1,0.4-1.8c0-0.7-0.1-1.3-0.4-1.8
				s-0.6-1-1.1-1.3s-1-0.5-1.6-0.5S387.6,304.2,387.1,304.5z"/>
			<path class="st0" d="M396.9,301h4.5l2.2,3.4l2.2-3.4h4.6l-4.3,6.2l4.7,6.8h-4.7l-2.5-3.7l-2.4,3.7h-4.5l4.6-6.7L396.9,301z"/>
			<path class="st0" d="M412.4,301h10.7v3h-6.8v2h6.2v3h-6.2v2.1h7v3h-10.9L412.4,301L412.4,301z"/>
			<path class="st0" d="M435.1,301.9c1.1,0.5,1.9,1.3,2.5,2.3s0.9,2.1,0.9,3.4s-0.3,2.4-0.9,3.4s-1.4,1.8-2.5,2.3s-2.3,0.8-3.7,0.8
				h-5.6V301h5.7C432.8,301,434,301.3,435.1,301.9z M433.6,310.1c0.5-0.6,0.8-1.5,0.8-2.5s-0.3-1.9-0.9-2.5s-1.3-1-2.3-1h-1.8v7h2
				C432.4,311.1,433.1,310.8,433.6,310.1z"/>
			<path class="st0" d="M443.2,311.2c0.3,0.3,0.5,0.7,0.5,1.2s-0.2,0.9-0.5,1.3s-0.8,0.5-1.3,0.5s-0.9-0.2-1.3-0.5s-0.5-0.8-0.5-1.3
				s0.2-0.9,0.5-1.2c0.3-0.3,0.7-0.5,1.3-0.5C442.4,310.8,442.8,310.9,443.2,311.2z M440.2,301.1h3.6v3.4l-0.7,5h-2.3l-0.7-5v-3.4
				H440.2z"/>
		</g>
	</g>
	<g>
		<path class="st1" d="M482,264.7c0,3.8-47.9,3.3-107,3.3s-107,0.5-107-3.3s47.9-6.9,107-6.9C434.1,257.8,482,260.9,482,264.7z"/>
		<g>
			<g>
				<g>
					<g>
						<polygon class="st2" points="430.9,264.2 318,264.2 318,177.2 430.9,177.2 						"/>
					</g>
					<g>
						<g class="st3">
							<rect x="318.1" y="213.6" class="st4" width="11.5" height="6.3"/>
						</g>
						<g class="st3">
							<rect x="318.1" y="228.2" class="st4" width="11.5" height="6.3"/>
						</g>
						<g class="st3">
							<rect x="318.1" y="242.9" class="st4" width="11.5" height="6.3"/>
						</g>
						<g class="st3">
							<rect x="419.4" y="213.6" class="st4" width="11.5" height="6.3"/>
						</g>
						<g class="st3">
							<rect x="419.4" y="228.2" class="st4" width="11.5" height="6.3"/>
						</g>
						<g class="st3">
							<rect x="419.4" y="242.9" class="st4" width="11.5" height="6.3"/>
						</g>
					</g>
				</g>
				<g>
					<g>
						
							<rect x="440.8" y="172.9" transform="matrix(0.6846 -0.7289 0.7289 0.6846 1.6812 381.6239)" class="st5" width="2" height="31.9"/>
					</g>
					<g>
						<polygon class="st5" points="296.2,200.5 319.4,178.6 318,177.2 294.8,199 						"/>
					</g>
					<g>
						<polygon class="st5" points="438.4,206.1 310.5,206.1 318,177.2 430.9,177.2 						"/>
					</g>
				</g>
			</g>
		</g>
	</g>
	<g>
		<g>
			<g>
				<path class="st6" d="M361.6,228.5v6.1h-2.9v5h-7.8v-5h-11V229l6.3-15.3h8l-5.9,14.7h2.6v-4.9h7.8v4.9h2.9V228.5z"/>
				<path class="st6" d="M384.6,216.9c2,2.3,3.1,5.5,3.1,9.8c0,4.2-1,7.5-3.1,9.8c-2,2.3-5,3.4-8.8,3.4s-6.8-1.1-8.8-3.4
					c-2-2.3-3.1-5.5-3.1-9.8s1-7.5,3.1-9.8c2-2.3,5-3.4,8.8-3.4C379.7,213.4,382.6,214.6,384.6,216.9z M374,220.3
					c-0.4,0.4-0.8,1.2-1,2.2s-0.3,2.4-0.3,4.1s0.1,3.2,0.3,4.2c0.2,1,0.5,1.7,1,2.2s1.1,0.7,1.8,0.7c0.8,0,1.4-0.2,1.8-0.7
					s0.8-1.2,1-2.2s0.3-2.4,0.3-4.2s-0.1-3.2-0.3-4.1c-0.2-1-0.5-1.7-0.9-2.2c-0.4-0.4-1-0.7-1.8-0.7S374.5,219.9,374,220.3z"/>
				<path class="st6" d="M410.1,228.5v6.1h-2.9v5h-7.8v-5h-11V229l6.3-15.3h8l-5.9,14.7h2.6v-4.9h7.8v4.9h2.9V228.5z"/>
			</g>
		</g>
		<g>
			<g>
				<path class="st6" d="M343.7,246.8c0.4,0.3,0.5,0.8,0.5,1.3c0,0.6-0.2,1.1-0.5,1.4c-0.4,0.3-0.9,0.5-1.6,0.5h-1.5v1.8h-0.5v-5.4
					h2C342.8,246.4,343.3,246.5,343.7,246.8z M343.3,249.2c0.3-0.2,0.4-0.6,0.4-1s-0.1-0.8-0.4-1s-0.7-0.3-1.2-0.3h-1.4v2.7h1.4
					C342.6,249.5,343,249.4,343.3,249.2z"/>
				<path class="st6" d="M349,251.8l-0.6-1.4h-3l-0.6,1.4h-0.6l2.4-5.4h0.6l2.4,5.4H349z M345.6,249.9h2.6l-1.3-2.9L345.6,249.9z"/>
				<path class="st6" d="M354.2,249.1h0.5v2c-0.3,0.2-0.6,0.4-0.9,0.5s-0.7,0.2-1.1,0.2c-0.5,0-1-0.1-1.4-0.4s-0.8-0.6-1-1
					c-0.3-0.4-0.4-0.9-0.4-1.4s0.1-1,0.4-1.4s0.6-0.7,1-1s0.9-0.4,1.4-0.4c0.4,0,0.7,0.1,1.1,0.2c0.3,0.1,0.6,0.3,0.9,0.5l-0.3,0.4
					c-0.2-0.2-0.5-0.4-0.8-0.5s-0.6-0.2-0.9-0.2c-0.4,0-0.8,0.1-1.2,0.3c-0.4,0.2-0.6,0.5-0.8,0.8c-0.2,0.3-0.3,0.7-0.3,1.1
					c0,0.4,0.1,0.8,0.3,1.1c0.2,0.3,0.5,0.6,0.8,0.8c0.4,0.2,0.7,0.3,1.2,0.3c0.3,0,0.5,0,0.8-0.1s0.5-0.2,0.7-0.4L354.2,249.1
					L354.2,249.1z"/>
				<path class="st6" d="M356.2,246.4h3.6v0.5h-3.1v1.9h2.8v0.5h-2.8v2h3.2v0.5h-3.7V246.4z"/>
				<path class="st6" d="M367.3,246.4h0.5v5.4h-0.6l-3.4-4.6v4.6h-0.5v-5.4h0.6l3.4,4.6V246.4z"/>
				<path class="st6" d="M373.3,246.7c0.4,0.2,0.8,0.6,1,1c0.3,0.4,0.4,0.9,0.4,1.4s-0.1,1-0.4,1.4s-0.6,0.8-1,1s-0.9,0.4-1.4,0.4
					s-1-0.1-1.4-0.4s-0.8-0.6-1-1c-0.3-0.4-0.4-0.9-0.4-1.4s0.1-1,0.4-1.4s0.6-0.7,1-1s0.9-0.4,1.4-0.4S372.8,246.4,373.3,246.7z
					 M370.7,247.1c-0.4,0.2-0.6,0.5-0.8,0.8c-0.2,0.3-0.3,0.7-0.3,1.1s0.1,0.8,0.3,1.1c0.2,0.4,0.5,0.6,0.8,0.8
					c0.4,0.2,0.7,0.3,1.1,0.3s0.8-0.1,1.1-0.3c0.3-0.2,0.6-0.5,0.8-0.8c0.2-0.4,0.3-0.7,0.3-1.1s-0.1-0.8-0.3-1.1s-0.5-0.6-0.8-0.8
					s-0.7-0.3-1.1-0.3C371.4,246.8,371,246.9,370.7,247.1z"/>
				<path class="st6" d="M375,246.4h4.1v0.5h-1.8v4.9h-0.5v-4.9H375V246.4z"/>
				<path class="st6" d="M382.2,246.4h3.4v0.5h-2.9v2.1h2.5v0.5h-2.5v2.4h-0.5V246.4z"/>
				<path class="st6" d="M390.3,246.7c0.4,0.2,0.8,0.6,1,1c0.3,0.4,0.4,0.9,0.4,1.4s-0.1,1-0.4,1.4s-0.6,0.8-1,1s-0.9,0.4-1.4,0.4
					s-1-0.1-1.4-0.4s-0.8-0.6-1-1c-0.3-0.4-0.4-0.9-0.4-1.4s0.1-1,0.4-1.4s0.6-0.7,1-1s0.9-0.4,1.4-0.4
					C389.3,246.3,389.8,246.4,390.3,246.7z M387.7,247.1c-0.4,0.2-0.6,0.5-0.8,0.8c-0.2,0.3-0.3,0.7-0.3,1.1s0.1,0.8,0.3,1.1
					c0.2,0.4,0.5,0.6,0.8,0.8c0.4,0.2,0.7,0.3,1.1,0.3s0.8-0.1,1.1-0.3c0.3-0.2,0.6-0.5,0.8-0.8c0.2-0.4,0.3-0.7,0.3-1.1
					s-0.1-0.8-0.3-1.1s-0.5-0.6-0.8-0.8s-0.7-0.3-1.1-0.3C388.4,246.8,388,246.9,387.7,247.1z"/>
				<path class="st6" d="M393.7,250.9c0.3,0.3,0.7,0.5,1.3,0.5s1-0.2,1.3-0.5s0.4-0.7,0.4-1.3v-3.2h0.5v3.2c0,0.7-0.2,1.3-0.6,1.6
					c-0.4,0.4-0.9,0.6-1.6,0.6s-1.3-0.2-1.6-0.6c-0.4-0.4-0.6-0.9-0.6-1.6v-3.2h0.5v3.2C393.2,250.1,393.4,250.6,393.7,250.9z"/>
				<path class="st6" d="M402.7,246.4h0.5v5.4h-0.6l-3.4-4.6v4.6h-0.5v-5.4h0.6l3.4,4.6V246.4z"/>
				<path class="st6" d="M408.5,246.7c0.4,0.2,0.8,0.6,1,1s0.4,0.9,0.4,1.4s-0.1,1-0.4,1.4s-0.6,0.7-1,1c-0.4,0.2-0.9,0.4-1.4,0.4
					h-2.2v-5.4h2.2C407.6,246.4,408.1,246.5,408.5,246.7z M408.3,251c0.3-0.2,0.6-0.5,0.8-0.8c0.2-0.3,0.3-0.7,0.3-1.1
					s-0.1-0.8-0.3-1.1c-0.2-0.3-0.5-0.6-0.8-0.8s-0.7-0.3-1.1-0.3h-1.6v4.5h1.7C407.5,251.3,407.9,251.2,408.3,251z"/>
			</g>
		</g>
	</g>
</g>
</svg>
