<?xml version="1.0" encoding="utf-8"?>
<!-- Generator: Adobe Illustrator 20.1.0, SVG Export Plug-In . SVG Version: 6.00 Build 0)  -->
<svg version="1.1" id="Capa_1" xmlns="http://www.w3.org/2000/svg" xmlns:xlink="http://www.w3.org/1999/xlink" x="0px" y="0px"
	 viewBox="0 0 640 480" style="enable-background:new 0 0 640 480;" xml:space="preserve">
<g>
	<g>
		<path d="M223.2,225.5v5h-2.4v4.1h-6.4v-4.1h-9v-4.5l5.1-12.5h6.6l-4.8,12h2.1v-4h6.4v4H223.2z"/>
		<path d="M242,216c1.7,1.9,2.5,4.5,2.5,8c0,3.5-0.8,6.1-2.5,8c-1.7,1.9-4.1,2.8-7.2,2.8c-3.1,0-5.5-0.9-7.2-2.8
			c-1.7-1.9-2.5-4.5-2.5-8c0-3.5,0.8-6.1,2.5-8c1.7-1.8,4.1-2.8,7.2-2.8C237.9,213.2,240.3,214.1,242,216z M233.3,218.8
			c-0.4,0.4-0.6,0.9-0.8,1.8c-0.2,0.8-0.2,1.9-0.2,3.4c0,1.4,0.1,2.6,0.2,3.4c0.2,0.8,0.4,1.4,0.8,1.8c0.4,0.4,0.9,0.5,1.5,0.5
			c0.6,0,1.1-0.2,1.5-0.5c0.4-0.4,0.6-1,0.8-1.8c0.2-0.8,0.2-2,0.2-3.4c0-1.4-0.1-2.6-0.2-3.4c-0.2-0.8-0.4-1.4-0.8-1.8
			c-0.4-0.4-0.8-0.5-1.5-0.5C234.2,218.3,233.7,218.5,233.3,218.8z"/>
		<path d="M261.8,223.9c0.9,1,1.4,2.3,1.4,3.9c0,1.4-0.4,2.6-1.1,3.6c-0.7,1.1-1.7,1.9-3.1,2.5c-1.3,0.6-2.9,0.9-4.6,0.9
			c-1.6,0-3.2-0.3-4.8-0.8c-1.6-0.5-2.9-1.2-4-2l2.5-4.7c1.9,1.6,3.8,2.3,5.8,2.3c1.7,0,2.5-0.6,2.5-1.9c0-0.6-0.2-1.1-0.6-1.4
			c-0.4-0.3-1.1-0.5-1.9-0.5h-3.9v-3.6l4.1-3.9h-7.3v-5h15.4v3.9l-5,4.4l1,0.2C259.7,222.2,260.9,222.9,261.8,223.9z"/>
		<path d="M271.3,213.4h17v5.3h-10v3.6h9.4v5.3h-9.4v6.9h-7V213.4z"/>
		<path d="M303.5,218.9c1.4,0.7,2.5,1.7,3.3,2.9c0.8,1.3,1.1,2.8,1.1,4.5c0,1.7-0.4,3.2-1.1,4.5c-0.8,1.3-1.8,2.3-3.3,3
			c-1.4,0.7-3,1.1-4.9,1.1c-1.9,0-3.5-0.4-4.9-1.1c-1.4-0.7-2.5-1.7-3.3-3c-0.8-1.3-1.1-2.8-1.1-4.5c0-1.7,0.4-3.2,1.1-4.5
			c0.8-1.3,1.8-2.3,3.3-2.9c1.4-0.7,3-1,4.9-1C300.4,217.8,302.1,218.2,303.5,218.9z M296.8,224c-0.5,0.6-0.7,1.4-0.7,2.3
			c0,1,0.2,1.7,0.7,2.3c0.5,0.6,1,0.9,1.8,0.9c0.7,0,1.3-0.3,1.8-0.9c0.5-0.6,0.7-1.4,0.7-2.3c0-1-0.2-1.7-0.7-2.3
			c-0.5-0.6-1-0.9-1.8-0.9C297.8,223.2,297.2,223.5,296.8,224z"/>
		<path d="M318.9,218.5c0.9-0.5,1.8-0.7,2.9-0.7v6.1c-0.4-0.1-0.9-0.1-1.3-0.1c-1.2,0-2.1,0.3-2.7,0.8c-0.7,0.5-1,1.2-1,2.1v7.9H310
			v-16.5h6.8v2.4C317.3,219.6,318,218.9,318.9,218.5z"/>
		<path d="M338.8,218.9c1.1,0.7,2,1.7,2.6,3c0.6,1.3,0.9,2.8,0.9,4.5c0,1.7-0.3,3.2-0.9,4.4c-0.6,1.3-1.5,2.2-2.6,2.9
			c-1.1,0.7-2.4,1-3.9,1c-0.9,0-1.7-0.2-2.4-0.5c-0.7-0.3-1.4-0.8-1.9-1.4v1.7h-6.8v-22.3h6.8v7.5c1.1-1.3,2.5-1.9,4.2-1.9
			C336.3,217.8,337.6,218.2,338.8,218.9z M334.9,228.5c0.5-0.6,0.7-1.4,0.7-2.3s-0.2-1.7-0.7-2.3c-0.5-0.6-1-0.9-1.8-0.9
			s-1.3,0.3-1.8,0.9c-0.4,0.6-0.7,1.4-0.7,2.3s0.2,1.7,0.7,2.3s1,0.9,1.8,0.9S334.4,229.1,334.9,228.5z"/>
		<path d="M350.3,210.9c0.6,0.6,1,1.5,1,2.5c0,1-0.3,1.8-1,2.5c-0.6,0.6-1.5,1-2.5,1c-1,0-1.8-0.3-2.5-1c-0.6-0.6-1-1.5-1-2.5
			c0-1,0.3-1.8,1-2.5c0.6-0.6,1.5-1,2.5-1C348.8,209.9,349.6,210.3,350.3,210.9z M344.5,218.1h6.8v16.5h-6.8V218.1z"/>
		<path d="M371.9,212.2v22.3h-6.8v-1.7c-1.1,1.3-2.5,1.9-4.2,1.9c-1.5,0-2.8-0.4-4-1.1c-1.1-0.7-2-1.7-2.6-3
			c-0.6-1.3-0.9-2.8-0.9-4.5c0-1.7,0.3-3.2,0.9-4.4c0.6-1.3,1.5-2.2,2.6-2.9c1.1-0.7,2.4-1,3.9-1c0.9,0,1.7,0.2,2.4,0.5
			c0.7,0.3,1.4,0.8,1.9,1.4v-7.6H371.9z M364.4,228.7c0.4-0.6,0.7-1.4,0.7-2.3c0-1-0.2-1.7-0.7-2.3c-0.4-0.6-1-0.9-1.8-0.9
			c-0.7,0-1.3,0.3-1.8,0.9c-0.5,0.6-0.7,1.4-0.7,2.3c0,1,0.2,1.7,0.7,2.3c0.5,0.6,1,0.9,1.8,0.9C363.4,229.6,364,229.3,364.4,228.7z
			"/>
		<path d="M392.6,212.2v22.3h-6.8v-1.7c-1.1,1.3-2.5,1.9-4.2,1.9c-1.5,0-2.8-0.4-4-1.1c-1.1-0.7-2-1.7-2.6-3
			c-0.6-1.3-0.9-2.8-0.9-4.5c0-1.7,0.3-3.2,0.9-4.4c0.6-1.3,1.5-2.2,2.6-2.9c1.1-0.7,2.4-1,3.9-1c0.9,0,1.7,0.2,2.4,0.5
			c0.7,0.3,1.4,0.8,1.9,1.4v-7.6H392.6z M385.2,228.7c0.4-0.6,0.7-1.4,0.7-2.3c0-1-0.2-1.7-0.7-2.3c-0.4-0.6-1-0.9-1.8-0.9
			c-0.7,0-1.3,0.3-1.8,0.9c-0.5,0.6-0.7,1.4-0.7,2.3c0,1,0.2,1.7,0.7,2.3c0.5,0.6,1,0.9,1.8,0.9
			C384.2,229.6,384.8,229.3,385.2,228.7z"/>
		<path d="M408.4,218.9c1.3,0.7,2.3,1.8,3,3.2c0.7,1.4,1.1,3,1.1,4.8c0,0.4,0,0.7,0,0.9h-10.7c0.2,0.6,0.6,1.1,1,1.5
			c0.5,0.3,1,0.5,1.7,0.5c1.2,0,2.3-0.5,3.3-1.5l3.5,3.5c-0.9,1-2,1.7-3.2,2.2c-1.3,0.5-2.7,0.8-4.3,0.8c-1.8,0-3.4-0.3-4.8-1
			c-1.4-0.7-2.4-1.7-3.1-2.9c-0.7-1.3-1.1-2.7-1.1-4.4c0-1.7,0.4-3.2,1.1-4.5c0.7-1.3,1.8-2.3,3.1-3c1.3-0.7,2.9-1.1,4.6-1.1
			C405.5,217.8,407.1,218.2,408.4,218.9z M405.2,223c-0.4-0.4-0.8-0.7-1.4-0.7c-0.6,0-1,0.2-1.4,0.6c-0.4,0.4-0.6,1-0.8,1.7h4.1
			C405.7,224,405.5,223.4,405.2,223z"/>
		<path d="M429.4,218.5c0.9,0.5,1.6,1.3,2.1,2.2c0.5,0.9,0.8,2,0.8,3.3v10.5h-6.8V226c0-0.7-0.2-1.2-0.5-1.6
			c-0.4-0.4-0.8-0.6-1.4-0.6c-0.7,0-1.2,0.2-1.6,0.7c-0.4,0.5-0.6,1.1-0.6,1.9v8.2h-6.8v-16.5h6.8v2.3c0.6-0.9,1.3-1.5,2.1-2
			c0.9-0.5,1.8-0.7,2.9-0.7C427.5,217.8,428.5,218,429.4,218.5z"/>
	</g>
	<g>
		<path d="M240.2,255.3c0.3,0.3,0.5,0.8,0.5,1.4v3h-0.6v-2.9c0-0.5-0.1-0.8-0.4-1.1c-0.3-0.3-0.6-0.4-1.1-0.4c-0.5,0-1,0.2-1.3,0.5
			c-0.3,0.4-0.5,0.8-0.5,1.4v2.4h-0.6v-7h0.6v3.2c0.3-0.8,1-1.2,2-1.2C239.4,254.8,239.9,255,240.2,255.3z"/>
		<path d="M244.9,259.4c-0.3,0.2-0.7,0.4-1.1,0.4c-0.4,0-0.7-0.1-0.9-0.3c-0.2-0.2-0.3-0.6-0.3-1v-2.9h-0.7l0-0.5h0.7v-1.3h0.6v1.3
			l1.6,0v0.5h-1.6v2.8c0,0.6,0.2,0.9,0.7,0.9c0.3,0,0.5-0.1,0.8-0.3L244.9,259.4z"/>
		<path d="M248.5,259.4c-0.3,0.2-0.7,0.4-1.1,0.4c-0.4,0-0.7-0.1-0.9-0.3c-0.2-0.2-0.3-0.6-0.3-1v-2.9h-0.7l0-0.5h0.7v-1.3h0.6v1.3
			l1.6,0v0.5h-1.6v2.8c0,0.6,0.2,0.9,0.7,0.9c0.3,0,0.5-0.1,0.8-0.3L248.5,259.4z"/>
		<path d="M253.5,255.1c0.4,0.2,0.6,0.5,0.8,0.9c0.2,0.4,0.3,0.8,0.3,1.3c0,0.5-0.1,0.9-0.3,1.3c-0.2,0.4-0.5,0.7-0.8,0.9
			c-0.4,0.2-0.8,0.3-1.2,0.3c-0.5,0-0.8-0.1-1.2-0.3c-0.3-0.2-0.6-0.5-0.8-0.9v3h-0.6v-6.8h0.6v1.1c0.2-0.4,0.4-0.6,0.8-0.9
			c0.3-0.2,0.7-0.3,1.2-0.3C252.8,254.8,253.2,254.9,253.5,255.1z M253.2,259c0.3-0.2,0.5-0.4,0.7-0.7c0.2-0.3,0.2-0.6,0.2-1
			c0-0.4-0.1-0.7-0.2-1c-0.2-0.3-0.4-0.5-0.7-0.7c-0.3-0.2-0.6-0.2-1-0.2c-0.4,0-0.7,0.1-1,0.2c-0.3,0.2-0.5,0.4-0.7,0.7
			c-0.2,0.3-0.2,0.6-0.2,1c0,0.4,0.1,0.7,0.2,1c0.2,0.3,0.4,0.5,0.7,0.7c0.3,0.2,0.6,0.2,1,0.2C252.6,259.3,252.9,259.2,253.2,259z"
			/>
		<path d="M257.9,255.4c-0.2-0.1-0.5-0.1-0.7-0.1c-0.3,0-0.6,0.1-0.8,0.2c-0.2,0.1-0.3,0.3-0.3,0.6c0,0.2,0.1,0.3,0.2,0.4
			c0.1,0.1,0.2,0.2,0.4,0.3c0.2,0.1,0.4,0.1,0.6,0.2c0.3,0.1,0.6,0.2,0.8,0.3c0.2,0.1,0.4,0.2,0.5,0.4c0.2,0.2,0.2,0.4,0.2,0.7
			c0,0.4-0.2,0.8-0.5,1c-0.3,0.2-0.8,0.4-1.3,0.4c-0.4,0-0.7-0.1-1-0.2c-0.3-0.1-0.6-0.3-0.8-0.5l0.3-0.5c0.2,0.2,0.5,0.3,0.8,0.5
			c0.3,0.1,0.6,0.2,0.9,0.2c0.3,0,0.6-0.1,0.8-0.2c0.2-0.1,0.3-0.3,0.3-0.6c0-0.2-0.1-0.3-0.2-0.4c-0.1-0.1-0.2-0.2-0.4-0.3
			c-0.2-0.1-0.4-0.1-0.7-0.2c-0.3-0.1-0.6-0.2-0.8-0.3c-0.2-0.1-0.4-0.2-0.5-0.4c-0.1-0.2-0.2-0.4-0.2-0.7c0-0.4,0.2-0.8,0.5-1
			c0.3-0.2,0.7-0.3,1.2-0.3c0.3,0,0.6,0,0.8,0.1c0.3,0.1,0.5,0.2,0.7,0.3l-0.2,0.5C258.4,255.6,258.2,255.5,257.9,255.4z"/>
		<path d="M260.5,256.3c0.1,0.1,0.1,0.2,0.1,0.3c0,0.1,0,0.2-0.1,0.3c-0.1,0.1-0.2,0.1-0.3,0.1c-0.1,0-0.2,0-0.3-0.1
			c-0.1-0.1-0.1-0.2-0.1-0.3c0-0.1,0-0.2,0.1-0.3c0.1-0.1,0.2-0.1,0.3-0.1C260.4,256.2,260.5,256.2,260.5,256.3z M260.5,259.1
			c0.1,0.1,0.1,0.2,0.1,0.3c0,0.1,0,0.2-0.1,0.3c-0.1,0.1-0.2,0.1-0.3,0.1c-0.1,0-0.2,0-0.3-0.1c-0.1-0.1-0.1-0.2-0.1-0.3
			c0-0.1,0-0.2,0.1-0.3c0.1-0.1,0.2-0.1,0.3-0.1C260.4,259,260.5,259,260.5,259.1z"/>
		<path d="M264,252.1h0.6l-2.9,8.9h-0.6L264,252.1z"/>
		<path d="M267,252.1h0.6l-2.9,8.9H264L267,252.1z"/>
		<path d="M269.9,255.4c-0.2-0.1-0.5-0.1-0.7-0.1c-0.3,0-0.6,0.1-0.8,0.2c-0.2,0.1-0.3,0.3-0.3,0.6c0,0.2,0.1,0.3,0.2,0.4
			c0.1,0.1,0.2,0.2,0.4,0.3c0.2,0.1,0.4,0.1,0.6,0.2c0.3,0.1,0.6,0.2,0.8,0.3c0.2,0.1,0.4,0.2,0.5,0.4c0.2,0.2,0.2,0.4,0.2,0.7
			c0,0.4-0.2,0.8-0.5,1c-0.3,0.2-0.8,0.4-1.3,0.4c-0.4,0-0.7-0.1-1-0.2c-0.3-0.1-0.6-0.3-0.8-0.5l0.3-0.5c0.2,0.2,0.5,0.3,0.8,0.5
			c0.3,0.1,0.6,0.2,0.9,0.2c0.3,0,0.6-0.1,0.8-0.2c0.2-0.1,0.3-0.3,0.3-0.6c0-0.2-0.1-0.3-0.2-0.4c-0.1-0.1-0.2-0.2-0.4-0.3
			c-0.2-0.1-0.4-0.1-0.7-0.2c-0.3-0.1-0.6-0.2-0.8-0.3c-0.2-0.1-0.4-0.2-0.5-0.4c-0.1-0.2-0.2-0.4-0.2-0.7c0-0.4,0.2-0.8,0.5-1
			c0.3-0.2,0.7-0.3,1.2-0.3c0.3,0,0.6,0,0.8,0.1c0.3,0.1,0.5,0.2,0.7,0.3l-0.2,0.5C270.3,255.6,270.1,255.5,269.9,255.4z"/>
		<path d="M275.7,259.8l-1.8-2.6l-1.1,1.1v1.4h-0.6v-7h0.6v4.7l2.7-2.7h0.8l-1.9,1.9l2.1,3H275.7z"/>
		<path d="M281,255.6c0.4,0.5,0.6,1.1,0.6,2h-4.1c0,0.5,0.2,1,0.6,1.3c0.3,0.3,0.8,0.5,1.3,0.5c0.3,0,0.6-0.1,0.9-0.2
			c0.3-0.1,0.5-0.3,0.7-0.5l0.4,0.4c-0.2,0.3-0.5,0.5-0.9,0.6c-0.3,0.1-0.7,0.2-1.1,0.2c-0.5,0-0.9-0.1-1.3-0.3
			c-0.4-0.2-0.7-0.5-0.9-0.9c-0.2-0.4-0.3-0.8-0.3-1.3c0-0.5,0.1-0.9,0.3-1.3c0.2-0.4,0.5-0.7,0.9-0.9c0.4-0.2,0.8-0.3,1.3-0.3
			C280,254.8,280.6,255.1,281,255.6z M281,257c0-0.5-0.2-0.9-0.5-1.2c-0.3-0.3-0.7-0.5-1.2-0.5c-0.5,0-0.9,0.2-1.2,0.5
			c-0.3,0.3-0.5,0.7-0.6,1.2H281z"/>
		<path d="M284.2,255.1c0.3-0.2,0.7-0.3,1.1-0.3v0.6c-0.5,0-0.9,0.1-1.3,0.5c-0.3,0.3-0.5,0.7-0.5,1.3v2.6h-0.6v-4.9h0.6v1.1
			C283.7,255.6,283.9,255.3,284.2,255.1z"/>
		<path d="M288.8,259.4c-0.3,0.2-0.7,0.4-1.1,0.4c-0.4,0-0.7-0.1-0.9-0.3c-0.2-0.2-0.3-0.6-0.3-1v-2.9h-0.7l0-0.5h0.7v-1.3h0.6v1.3
			l1.6,0v0.5h-1.6v2.8c0,0.6,0.2,0.9,0.7,0.9c0.3,0,0.5-0.1,0.8-0.3L288.8,259.4z"/>
		<path d="M293.5,255.6c0.4,0.5,0.6,1.1,0.6,2H290c0,0.5,0.2,1,0.6,1.3c0.3,0.3,0.8,0.5,1.3,0.5c0.3,0,0.6-0.1,0.9-0.2
			c0.3-0.1,0.5-0.3,0.7-0.5l0.4,0.4c-0.2,0.3-0.5,0.5-0.9,0.6c-0.3,0.1-0.7,0.2-1.1,0.2c-0.5,0-0.9-0.1-1.3-0.3
			c-0.4-0.2-0.7-0.5-0.9-0.9c-0.2-0.4-0.3-0.8-0.3-1.3c0-0.5,0.1-0.9,0.3-1.3c0.2-0.4,0.5-0.7,0.9-0.9c0.4-0.2,0.8-0.3,1.3-0.3
			C292.6,254.8,293.1,255.1,293.5,255.6z M293.5,257c0-0.5-0.2-0.9-0.5-1.2c-0.3-0.3-0.7-0.5-1.2-0.5c-0.5,0-0.9,0.2-1.2,0.5
			c-0.3,0.3-0.5,0.7-0.6,1.2H293.5z"/>
		<path d="M299.9,252.8v7h-0.6v-1.1c-0.2,0.4-0.5,0.7-0.8,0.9c-0.3,0.2-0.7,0.3-1.2,0.3c-0.5,0-0.9-0.1-1.2-0.3
			c-0.4-0.2-0.6-0.5-0.8-0.9c-0.2-0.4-0.3-0.8-0.3-1.3c0-0.5,0.1-0.9,0.3-1.3c0.2-0.4,0.5-0.7,0.8-0.9c0.4-0.2,0.8-0.3,1.2-0.3
			c0.5,0,0.8,0.1,1.2,0.3c0.3,0.2,0.6,0.5,0.8,0.9v-3.2H299.9z M298.4,259c0.3-0.2,0.5-0.4,0.7-0.7s0.2-0.6,0.2-1
			c0-0.4-0.1-0.7-0.2-1c-0.2-0.3-0.4-0.5-0.7-0.7c-0.3-0.2-0.6-0.3-1-0.3s-0.7,0.1-1,0.3c-0.3,0.2-0.5,0.4-0.7,0.7
			c-0.2,0.3-0.2,0.6-0.2,1c0,0.4,0.1,0.7,0.2,1s0.4,0.5,0.7,0.7c0.3,0.2,0.6,0.2,1,0.2S298.1,259.2,298.4,259z"/>
		<path d="M302.1,259.1c0.1,0.1,0.1,0.2,0.1,0.3c0,0.1,0,0.2-0.1,0.3c-0.1,0.1-0.2,0.1-0.3,0.1c-0.1,0-0.2,0-0.3-0.1
			c-0.1-0.1-0.1-0.2-0.1-0.3c0-0.1,0-0.2,0.1-0.3c0.1-0.1,0.2-0.1,0.3-0.1C301.9,259,302,259,302.1,259.1z"/>
		<path d="M305.6,255.4c-0.4,0-0.7,0.1-1,0.2c-0.3,0.2-0.5,0.4-0.7,0.7c-0.2,0.3-0.2,0.6-0.2,1c0,0.4,0.1,0.7,0.2,1
			c0.2,0.3,0.4,0.5,0.7,0.7c0.3,0.2,0.6,0.2,1,0.2c0.3,0,0.6-0.1,0.9-0.2c0.3-0.1,0.5-0.3,0.7-0.5l0.4,0.4c-0.2,0.3-0.5,0.5-0.8,0.6
			c-0.3,0.1-0.7,0.2-1.1,0.2c-0.5,0-0.9-0.1-1.3-0.3c-0.4-0.2-0.7-0.5-0.9-0.9c-0.2-0.4-0.3-0.8-0.3-1.3c0-0.5,0.1-0.9,0.3-1.3
			c0.2-0.4,0.5-0.7,0.9-0.9c0.4-0.2,0.8-0.3,1.3-0.3c0.4,0,0.7,0.1,1,0.2c0.3,0.1,0.6,0.3,0.8,0.5l-0.4,0.4
			C306.7,255.6,306.2,255.4,305.6,255.4z"/>
		<path d="M311.9,255.1c0.4,0.2,0.7,0.5,0.9,0.9c0.2,0.4,0.3,0.8,0.3,1.3c0,0.5-0.1,0.9-0.3,1.3c-0.2,0.4-0.5,0.7-0.9,0.9
			c-0.4,0.2-0.8,0.3-1.3,0.3c-0.5,0-0.9-0.1-1.3-0.3c-0.4-0.2-0.7-0.5-0.9-0.9c-0.2-0.4-0.3-0.8-0.3-1.3c0-0.5,0.1-0.9,0.3-1.3
			c0.2-0.4,0.5-0.7,0.9-0.9c0.4-0.2,0.8-0.3,1.3-0.3C311.1,254.8,311.5,254.9,311.9,255.1z M309.7,255.6c-0.3,0.2-0.5,0.4-0.7,0.7
			c-0.2,0.3-0.2,0.6-0.2,1c0,0.4,0.1,0.7,0.2,1c0.2,0.3,0.4,0.5,0.7,0.7c0.3,0.2,0.6,0.2,1,0.2s0.7-0.1,1-0.2s0.5-0.4,0.7-0.7
			s0.2-0.6,0.2-1c0-0.4-0.1-0.7-0.2-1s-0.4-0.5-0.7-0.7s-0.6-0.2-1-0.2S310,255.5,309.7,255.6z"/>
		<path d="M322.1,255.3c0.3,0.3,0.5,0.8,0.5,1.4v3H322v-2.9c0-0.5-0.1-0.8-0.4-1.1c-0.3-0.3-0.6-0.4-1-0.4c-0.5,0-0.9,0.2-1.2,0.5
			c-0.3,0.4-0.4,0.8-0.4,1.4v2.4h-0.6v-2.9c0-0.5-0.1-0.8-0.4-1.1c-0.3-0.3-0.6-0.4-1-0.4c-0.5,0-0.9,0.2-1.2,0.5
			c-0.3,0.4-0.5,0.8-0.5,1.4v2.4h-0.6v-4.9h0.6v1.2c0.2-0.4,0.4-0.7,0.7-0.9c0.3-0.2,0.7-0.3,1.2-0.3c0.5,0,0.9,0.1,1.2,0.3
			c0.3,0.2,0.5,0.6,0.6,1c0.2-0.4,0.4-0.8,0.7-1s0.7-0.3,1.2-0.3C321.3,254.8,321.8,255,322.1,255.3z"/>
		<path d="M327.5,253.1c0.1,0.1,0.1,0.2,0.1,0.3s0,0.2-0.1,0.3c-0.1,0.1-0.2,0.1-0.3,0.1c-0.1,0-0.2,0-0.3-0.1
			c-0.1-0.1-0.1-0.2-0.1-0.3s0-0.2,0.1-0.3c0.1-0.1,0.2-0.1,0.3-0.1S327.4,253,327.5,253.1z M326.9,254.8h0.6v4.9h-0.6V254.8z"/>
		<path d="M331.3,255.4c-0.2-0.1-0.5-0.1-0.7-0.1c-0.3,0-0.6,0.1-0.8,0.2s-0.3,0.3-0.3,0.6c0,0.2,0.1,0.3,0.2,0.4
			c0.1,0.1,0.2,0.2,0.4,0.3c0.2,0.1,0.4,0.1,0.6,0.2c0.3,0.1,0.6,0.2,0.8,0.3c0.2,0.1,0.4,0.2,0.5,0.4c0.2,0.2,0.2,0.4,0.2,0.7
			c0,0.4-0.2,0.8-0.5,1c-0.3,0.2-0.8,0.4-1.3,0.4c-0.4,0-0.7-0.1-1-0.2c-0.3-0.1-0.6-0.3-0.8-0.5l0.3-0.5c0.2,0.2,0.5,0.3,0.8,0.5
			c0.3,0.1,0.6,0.2,0.9,0.2c0.3,0,0.6-0.1,0.8-0.2c0.2-0.1,0.3-0.3,0.3-0.6c0-0.2-0.1-0.3-0.2-0.4c-0.1-0.1-0.2-0.2-0.4-0.3
			c-0.2-0.1-0.4-0.1-0.7-0.2c-0.3-0.1-0.6-0.2-0.8-0.3c-0.2-0.1-0.4-0.2-0.5-0.4c-0.1-0.2-0.2-0.4-0.2-0.7c0-0.4,0.2-0.8,0.5-1
			c0.3-0.2,0.7-0.3,1.2-0.3c0.3,0,0.6,0,0.8,0.1c0.3,0.1,0.5,0.2,0.7,0.3l-0.2,0.5C331.7,255.6,331.5,255.5,331.3,255.4z"/>
		<path d="M340.1,255.3c0.3,0.3,0.5,0.8,0.5,1.4v3H340v-2.9c0-0.5-0.1-0.8-0.4-1.1c-0.3-0.3-0.6-0.4-1.1-0.4c-0.5,0-0.9,0.2-1.2,0.5
			c-0.3,0.3-0.5,0.7-0.5,1.2v2.7h-0.6v-4.9h0.6v1.1c0.2-0.4,0.4-0.7,0.7-0.9c0.3-0.2,0.7-0.3,1.2-0.3
			C339.3,254.8,339.8,255,340.1,255.3z"/>
		<path d="M345.6,255.1c0.4,0.2,0.7,0.5,0.9,0.9c0.2,0.4,0.3,0.8,0.3,1.3c0,0.5-0.1,0.9-0.3,1.3c-0.2,0.4-0.5,0.7-0.9,0.9
			c-0.4,0.2-0.8,0.3-1.3,0.3c-0.5,0-0.9-0.1-1.3-0.3c-0.4-0.2-0.7-0.5-0.9-0.9c-0.2-0.4-0.3-0.8-0.3-1.3c0-0.5,0.1-0.9,0.3-1.3
			c0.2-0.4,0.5-0.7,0.9-0.9c0.4-0.2,0.8-0.3,1.3-0.3C344.8,254.8,345.2,254.9,345.6,255.1z M343.3,255.6c-0.3,0.2-0.5,0.4-0.7,0.7
			c-0.2,0.3-0.2,0.6-0.2,1c0,0.4,0.1,0.7,0.2,1c0.2,0.3,0.4,0.5,0.7,0.7c0.3,0.2,0.6,0.2,1,0.2s0.7-0.1,1-0.2
			c0.3-0.2,0.5-0.4,0.7-0.7c0.2-0.3,0.2-0.6,0.2-1c0-0.4-0.1-0.7-0.2-1c-0.2-0.3-0.4-0.5-0.7-0.7c-0.3-0.2-0.6-0.2-1-0.2
			S343.6,255.5,343.3,255.6z"/>
		<path d="M350.6,259.4c-0.3,0.2-0.7,0.4-1.1,0.4c-0.4,0-0.7-0.1-0.9-0.3c-0.2-0.2-0.3-0.6-0.3-1v-2.9h-0.7l0-0.5h0.7v-1.3h0.6v1.3
			l1.6,0v0.5h-1.6v2.8c0,0.6,0.2,0.9,0.7,0.9c0.3,0,0.5-0.1,0.8-0.3L350.6,259.4z"/>
		<path d="M357.4,259.8l0-0.8c-0.2,0.3-0.4,0.5-0.8,0.6c-0.3,0.1-0.7,0.2-1.1,0.2c-0.3,0-0.6-0.1-0.9-0.2c-0.3-0.1-0.5-0.3-0.6-0.5
			c-0.1-0.2-0.2-0.5-0.2-0.8c0-0.4,0.2-0.8,0.5-1c0.3-0.2,0.8-0.4,1.4-0.4h1.7v-0.4c0-0.4-0.1-0.7-0.3-0.9c-0.2-0.2-0.6-0.3-1-0.3
			c-0.5,0-1.1,0.2-1.6,0.6l-0.3-0.4c0.3-0.2,0.6-0.4,1-0.5c0.3-0.1,0.6-0.2,1-0.2c0.6,0,1.1,0.1,1.4,0.4s0.5,0.7,0.5,1.2l0,3.3
			H357.4z M356.8,259c0.3-0.2,0.5-0.5,0.6-0.9v-0.7h-1.6c-0.4,0-0.8,0.1-1,0.2c-0.2,0.1-0.3,0.4-0.3,0.6c0,0.3,0.1,0.5,0.3,0.7
			c0.2,0.2,0.5,0.3,0.9,0.3C356.1,259.3,356.5,259.2,356.8,259z"/>
		<path d="M363.7,255.3c0.3,0.3,0.5,0.8,0.5,1.4v3h-0.6v-2.9c0-0.5-0.1-0.8-0.4-1.1c-0.3-0.3-0.6-0.4-1.1-0.4
			c-0.5,0-0.9,0.2-1.2,0.5c-0.3,0.3-0.5,0.7-0.5,1.2v2.7h-0.6v-4.9h0.6v1.1c0.2-0.4,0.4-0.7,0.7-0.9c0.3-0.2,0.7-0.3,1.2-0.3
			C362.9,254.8,363.4,255,363.7,255.3z"/>
		<path d="M371.6,259.8l0-0.8c-0.2,0.3-0.4,0.5-0.8,0.6c-0.3,0.1-0.7,0.2-1.1,0.2c-0.3,0-0.6-0.1-0.9-0.2c-0.3-0.1-0.5-0.3-0.6-0.5
			c-0.1-0.2-0.2-0.5-0.2-0.8c0-0.4,0.2-0.8,0.5-1c0.3-0.2,0.8-0.4,1.4-0.4h1.7v-0.4c0-0.4-0.1-0.7-0.3-0.9c-0.2-0.2-0.6-0.3-1-0.3
			c-0.5,0-1.1,0.2-1.6,0.6l-0.3-0.4c0.3-0.2,0.6-0.4,1-0.5c0.3-0.1,0.6-0.2,1-0.2c0.6,0,1.1,0.1,1.4,0.4c0.3,0.3,0.5,0.7,0.5,1.2
			l0,3.3H371.6z M371,259c0.3-0.2,0.5-0.5,0.6-0.9v-0.7H370c-0.4,0-0.8,0.1-1,0.2c-0.2,0.1-0.3,0.4-0.3,0.6c0,0.3,0.1,0.5,0.3,0.7
			c0.2,0.2,0.5,0.3,0.9,0.3C370.3,259.3,370.7,259.2,371,259z"/>
		<path d="M374,252.8h0.6v7H374V252.8z"/>
		<path d="M376.5,252.8h0.6v7h-0.6V252.8z"/>
		<path d="M382.3,255.1c0.4,0.2,0.7,0.5,0.9,0.9c0.2,0.4,0.3,0.8,0.3,1.3c0,0.5-0.1,0.9-0.3,1.3c-0.2,0.4-0.5,0.7-0.9,0.9
			c-0.4,0.2-0.8,0.3-1.3,0.3c-0.5,0-0.9-0.1-1.3-0.3c-0.4-0.2-0.7-0.5-0.9-0.9c-0.2-0.4-0.3-0.8-0.3-1.3c0-0.5,0.1-0.9,0.3-1.3
			c0.2-0.4,0.5-0.7,0.9-0.9c0.4-0.2,0.8-0.3,1.3-0.3C381.5,254.8,381.9,254.9,382.3,255.1z M380.1,255.6c-0.3,0.2-0.5,0.4-0.7,0.7
			c-0.2,0.3-0.2,0.6-0.2,1c0,0.4,0.1,0.7,0.2,1c0.2,0.3,0.4,0.5,0.7,0.7c0.3,0.2,0.6,0.2,1,0.2s0.7-0.1,1-0.2
			c0.3-0.2,0.5-0.4,0.7-0.7c0.2-0.3,0.2-0.6,0.2-1c0-0.4-0.1-0.7-0.2-1c-0.2-0.3-0.4-0.5-0.7-0.7c-0.3-0.2-0.6-0.2-1-0.2
			S380.3,255.5,380.1,255.6z"/>
		<path d="M383.8,254.8h0.7l1.5,4.3l1.5-4.3h0.7l1.5,4.3l1.5-4.3h0.7l-1.8,4.9h-0.7l-1.5-4.2l-1.5,4.2h-0.7L383.8,254.8z"/>
		<path d="M396.3,255.6c0.4,0.5,0.6,1.1,0.6,2h-4.1c0,0.5,0.2,1,0.6,1.3c0.3,0.3,0.8,0.5,1.3,0.5c0.3,0,0.6-0.1,0.9-0.2
			c0.3-0.1,0.5-0.3,0.7-0.5l0.4,0.4c-0.2,0.3-0.5,0.5-0.9,0.6c-0.3,0.1-0.7,0.2-1.1,0.2c-0.5,0-0.9-0.1-1.3-0.3
			c-0.4-0.2-0.7-0.5-0.9-0.9c-0.2-0.4-0.3-0.8-0.3-1.3c0-0.5,0.1-0.9,0.3-1.3c0.2-0.4,0.5-0.7,0.9-0.9c0.4-0.2,0.8-0.3,1.3-0.3
			C395.3,254.8,395.9,255.1,396.3,255.6z M396.2,257c0-0.5-0.2-0.9-0.5-1.2c-0.3-0.3-0.7-0.5-1.2-0.5c-0.5,0-0.9,0.2-1.2,0.5
			c-0.3,0.3-0.5,0.7-0.6,1.2H396.2z"/>
		<path d="M402.6,252.8v7H402v-1.1c-0.2,0.4-0.5,0.7-0.8,0.9c-0.3,0.2-0.7,0.3-1.2,0.3c-0.5,0-0.9-0.1-1.2-0.3
			c-0.4-0.2-0.6-0.5-0.8-0.9c-0.2-0.4-0.3-0.8-0.3-1.3c0-0.5,0.1-0.9,0.3-1.3c0.2-0.4,0.5-0.7,0.8-0.9c0.4-0.2,0.8-0.3,1.2-0.3
			c0.5,0,0.8,0.1,1.2,0.3c0.3,0.2,0.6,0.5,0.8,0.9v-3.2H402.6z M401.1,259c0.3-0.2,0.5-0.4,0.7-0.7s0.2-0.6,0.2-1
			c0-0.4-0.1-0.7-0.2-1c-0.2-0.3-0.4-0.5-0.7-0.7c-0.3-0.2-0.6-0.3-1-0.3s-0.7,0.1-1,0.3c-0.3,0.2-0.5,0.4-0.7,0.7
			c-0.2,0.3-0.2,0.6-0.2,1c0,0.4,0.1,0.7,0.2,1s0.4,0.5,0.7,0.7c0.3,0.2,0.6,0.2,1,0.2S400.8,259.2,401.1,259z"/>
	</g>
	<g>
		<path d="M248.6,265.3c0.3-0.2,0.7-0.3,1.1-0.3v0.6c-0.5,0-0.9,0.1-1.3,0.5c-0.3,0.3-0.5,0.7-0.5,1.3v2.6h-0.6V265h0.6v1.1
			C248.1,265.8,248.3,265.5,248.6,265.3z"/>
		<path d="M254.4,265.8c0.4,0.5,0.6,1.1,0.6,2h-4.1c0,0.5,0.2,1,0.6,1.3c0.3,0.3,0.8,0.5,1.3,0.5c0.3,0,0.6-0.1,0.9-0.2
			c0.3-0.1,0.5-0.3,0.7-0.5l0.4,0.4c-0.2,0.3-0.5,0.5-0.9,0.6c-0.3,0.1-0.7,0.2-1.1,0.2c-0.5,0-0.9-0.1-1.3-0.3
			c-0.4-0.2-0.7-0.5-0.9-0.9c-0.2-0.4-0.3-0.8-0.3-1.3c0-0.5,0.1-0.9,0.3-1.3c0.2-0.4,0.5-0.7,0.9-0.9c0.4-0.2,0.8-0.3,1.3-0.3
			C253.4,265,254,265.3,254.4,265.8z M254.4,267.2c0-0.5-0.2-0.9-0.5-1.2c-0.3-0.3-0.7-0.5-1.2-0.5c-0.5,0-0.9,0.2-1.2,0.5
			c-0.3,0.3-0.5,0.7-0.6,1.2H254.4z"/>
		<path d="M257.3,263.8c-0.2,0.2-0.3,0.4-0.3,0.7v0.7h1.4v0.5H257v4.3h-0.6v-4.3h-0.6v-0.5h0.6v-0.6c0-0.3,0.1-0.6,0.2-0.9
			c0.1-0.2,0.3-0.4,0.6-0.6c0.2-0.1,0.5-0.2,0.8-0.2c0.3,0,0.6,0.1,0.9,0.2l-0.2,0.5c-0.2-0.1-0.4-0.2-0.7-0.2
			C257.7,263.5,257.4,263.6,257.3,263.8z"/>
		<path d="M262.9,265.8c0.4,0.5,0.6,1.1,0.6,2h-4.1c0,0.5,0.2,1,0.6,1.3c0.3,0.3,0.8,0.5,1.3,0.5c0.3,0,0.6-0.1,0.9-0.2
			c0.3-0.1,0.5-0.3,0.7-0.5l0.4,0.4c-0.2,0.3-0.5,0.5-0.9,0.6c-0.3,0.1-0.7,0.2-1.1,0.2c-0.5,0-0.9-0.1-1.3-0.3
			c-0.4-0.2-0.7-0.5-0.9-0.9c-0.2-0.4-0.3-0.8-0.3-1.3c0-0.5,0.1-0.9,0.3-1.3c0.2-0.4,0.5-0.7,0.9-0.9c0.4-0.2,0.8-0.3,1.3-0.3
			C261.9,265,262.5,265.3,262.9,265.8z M262.9,267.2c0-0.5-0.2-0.9-0.5-1.2c-0.3-0.3-0.7-0.5-1.2-0.5c-0.5,0-0.9,0.2-1.2,0.5
			c-0.3,0.3-0.5,0.7-0.6,1.2H262.9z"/>
		<path d="M266.1,265.3c0.3-0.2,0.7-0.3,1.1-0.3v0.6c-0.5,0-0.9,0.1-1.3,0.5c-0.3,0.3-0.5,0.7-0.5,1.3v2.6h-0.6V265h0.6v1.1
			C265.5,265.8,265.8,265.5,266.1,265.3z"/>
		<path d="M269.5,265.3c0.3-0.2,0.7-0.3,1.1-0.3v0.6c-0.5,0-0.9,0.1-1.3,0.5c-0.3,0.3-0.5,0.7-0.5,1.3v2.6h-0.6V265h0.6v1.1
			C269,265.8,269.2,265.5,269.5,265.3z"/>
		<path d="M275.3,265.8c0.4,0.5,0.6,1.1,0.6,2h-4.1c0,0.5,0.2,1,0.6,1.3c0.3,0.3,0.8,0.5,1.3,0.5c0.3,0,0.6-0.1,0.9-0.2
			c0.3-0.1,0.5-0.3,0.7-0.5l0.4,0.4c-0.2,0.3-0.5,0.5-0.9,0.6c-0.3,0.1-0.7,0.2-1.1,0.2c-0.5,0-0.9-0.1-1.3-0.3
			c-0.4-0.2-0.7-0.5-0.9-0.9c-0.2-0.4-0.3-0.8-0.3-1.3c0-0.5,0.1-0.9,0.3-1.3c0.2-0.4,0.5-0.7,0.9-0.9c0.4-0.2,0.8-0.3,1.3-0.3
			C274.3,265,274.9,265.3,275.3,265.8z M275.3,267.2c0-0.5-0.2-0.9-0.5-1.2c-0.3-0.3-0.7-0.5-1.2-0.5c-0.5,0-0.9,0.2-1.2,0.5
			c-0.3,0.3-0.5,0.7-0.6,1.2H275.3z"/>
		<path d="M278.5,265.3c0.3-0.2,0.7-0.3,1.1-0.3v0.6c-0.5,0-0.9,0.1-1.3,0.5c-0.3,0.3-0.5,0.7-0.5,1.3v2.6h-0.6V265h0.6v1.1
			C278,265.8,278.2,265.5,278.5,265.3z"/>
		<path d="M282.9,266.9h2.2v0.5h-2.2V266.9z"/>
		<path d="M291.5,265c0.3-0.2,0.6-0.2,0.9-0.2v1.7c-0.1,0-0.2,0-0.3,0c-0.4,0-0.7,0.1-0.9,0.3c-0.2,0.2-0.3,0.4-0.3,0.8v2.4h-1.9
			v-5.1h1.9v0.8C291,265.4,291.2,265.2,291.5,265z"/>
		<path d="M297.3,265.5c0.5,0.5,0.7,1.2,0.7,2c0,0.1,0,0.2,0,0.3h-3.4c0.1,0.2,0.2,0.4,0.4,0.6c0.2,0.1,0.4,0.2,0.6,0.2
			c0.4,0,0.8-0.2,1.1-0.5l1,1c-0.3,0.3-0.6,0.5-1,0.7c-0.4,0.2-0.8,0.2-1.3,0.2c-0.6,0-1.1-0.1-1.5-0.3s-0.7-0.5-1-0.9
			c-0.2-0.4-0.3-0.8-0.3-1.4c0-0.5,0.1-1,0.3-1.4s0.5-0.7,1-0.9c0.4-0.2,0.9-0.3,1.4-0.3C296.2,264.8,296.9,265,297.3,265.5z
			 M296,266.3c-0.1-0.2-0.3-0.2-0.6-0.2c-0.2,0-0.4,0.1-0.5,0.2c-0.1,0.2-0.2,0.4-0.3,0.6h1.6C296.2,266.7,296.1,266.5,296,266.3z"
			/>
		<path d="M302.3,269.7c-0.2,0.1-0.4,0.2-0.7,0.2c-0.3,0.1-0.5,0.1-0.8,0.1c-0.5,0-1-0.2-1.3-0.5c-0.3-0.3-0.5-0.7-0.5-1.2v-2h-0.7
			v-1.2h0.7v-1.4h1.9v1.4h1.3v1.2h-1.3v1.8c0,0.2,0,0.3,0.1,0.4c0.1,0.1,0.2,0.1,0.3,0.1c0.1,0,0.3,0,0.6-0.2L302.3,269.7z"/>
		<path d="M308.2,264.9v5.1h-1.9v-0.8c-0.2,0.3-0.4,0.5-0.7,0.6s-0.6,0.2-0.9,0.2c-0.4,0-0.7-0.1-0.9-0.2c-0.3-0.2-0.5-0.4-0.6-0.7
			c-0.2-0.3-0.2-0.6-0.2-1v-3.2h1.9v2.7c0,0.3,0.1,0.5,0.2,0.6c0.1,0.1,0.3,0.2,0.5,0.2c0.2,0,0.4-0.1,0.6-0.3
			c0.1-0.2,0.2-0.4,0.2-0.7v-2.5H308.2z"/>
		<path d="M311.9,265c0.3-0.2,0.6-0.2,0.9-0.2v1.7c-0.1,0-0.2,0-0.3,0c-0.4,0-0.7,0.1-0.9,0.3c-0.2,0.2-0.3,0.4-0.3,0.8v2.4h-1.9
			v-5.1h1.9v0.8C311.4,265.4,311.6,265.2,311.9,265z"/>
		<path d="M318,265c0.3,0.2,0.5,0.4,0.6,0.7c0.2,0.3,0.2,0.6,0.2,1v3.2H317v-2.7c0-0.3-0.1-0.5-0.2-0.6c-0.1-0.2-0.3-0.2-0.5-0.2
			c-0.3,0-0.5,0.1-0.6,0.3c-0.2,0.2-0.2,0.4-0.2,0.7v2.5h-1.9v-5.1h1.9v0.8c0.2-0.3,0.4-0.5,0.7-0.6c0.3-0.1,0.6-0.2,0.9-0.2
			C317.4,264.8,317.7,264.9,318,265z"/>
		<path d="M326.7,267.2v1.4h-0.8v1.3h-1.8v-1.3h-2.9v-1.3l1.7-4h1.8l-1.6,3.8h0.9v-1.3h1.8v1.3H326.7z"/>
		<path d="M332.6,264.2c0.5,0.6,0.8,1.4,0.8,2.5s-0.3,1.9-0.8,2.5c-0.5,0.6-1.2,0.9-2.2,0.9c-1,0-1.7-0.3-2.2-0.9
			c-0.5-0.6-0.8-1.4-0.8-2.5c0-1.1,0.3-1.9,0.8-2.5c0.5-0.6,1.3-0.9,2.2-0.9C331.3,263.3,332,263.6,332.6,264.2z M329.6,265.2
			c-0.2,0.3-0.2,0.8-0.2,1.5s0.1,1.2,0.2,1.5c0.2,0.3,0.4,0.4,0.8,0.4c0.3,0,0.6-0.1,0.7-0.4c0.1-0.3,0.2-0.8,0.2-1.5
			s-0.1-1.2-0.2-1.5c-0.1-0.3-0.4-0.4-0.7-0.4C330,264.7,329.8,264.9,329.6,265.2z"/>
		<path d="M338.7,266.7c0.3,0.3,0.5,0.7,0.5,1.2c0,0.4-0.1,0.8-0.3,1.1c-0.2,0.3-0.5,0.6-1,0.8c-0.4,0.2-0.9,0.3-1.4,0.3
			c-0.5,0-1-0.1-1.5-0.2c-0.5-0.2-0.9-0.4-1.2-0.6l0.7-1.3c0.3,0.2,0.6,0.4,0.9,0.5c0.3,0.1,0.6,0.2,0.9,0.2c0.3,0,0.5-0.1,0.7-0.2
			c0.2-0.1,0.2-0.3,0.2-0.5c0-0.2-0.1-0.4-0.2-0.5c-0.2-0.1-0.4-0.2-0.7-0.2h-1.2v-1l1.4-1.4h-2.4v-1.4h4.7v1.1l-1.7,1.5l0.3,0.1
			C338,266.2,338.4,266.4,338.7,266.7z"/>
		<path d="M341.9,263.4h5.1v1.5h-3.2v1.3h2.9v1.5h-2.9v2.3h-2V263.4z"/>
		<path d="M351.7,265.1c0.4,0.2,0.8,0.5,1,0.9c0.2,0.4,0.4,0.9,0.4,1.4c0,0.5-0.1,1-0.4,1.4c-0.2,0.4-0.6,0.7-1,0.9
			c-0.4,0.2-0.9,0.3-1.5,0.3c-0.6,0-1.1-0.1-1.5-0.3c-0.4-0.2-0.8-0.5-1-0.9s-0.4-0.9-0.4-1.4c0-0.5,0.1-1,0.4-1.4
			c0.2-0.4,0.6-0.7,1-0.9c0.4-0.2,0.9-0.3,1.5-0.3C350.8,264.8,351.3,264.9,351.7,265.1z M349.6,266.6c-0.2,0.2-0.3,0.5-0.3,0.8
			c0,0.3,0.1,0.6,0.3,0.8c0.2,0.2,0.4,0.3,0.7,0.3c0.3,0,0.5-0.1,0.7-0.3c0.2-0.2,0.3-0.5,0.3-0.8c0-0.3-0.1-0.6-0.3-0.8
			c-0.2-0.2-0.4-0.3-0.7-0.3C349.9,266.3,349.7,266.4,349.6,266.6z"/>
		<path d="M356.4,265c0.3-0.2,0.6-0.2,0.9-0.2v1.7c-0.1,0-0.2,0-0.3,0c-0.4,0-0.7,0.1-0.9,0.3c-0.2,0.2-0.3,0.4-0.3,0.8v2.4h-1.9
			v-5.1h1.9v0.8C355.9,265.4,356.1,265.2,356.4,265z"/>
		<path d="M362.6,265.1c0.4,0.2,0.6,0.5,0.8,0.9c0.2,0.4,0.3,0.9,0.3,1.4c0,0.5-0.1,1-0.3,1.4c-0.2,0.4-0.5,0.7-0.8,0.9
			c-0.4,0.2-0.8,0.3-1.2,0.3c-0.3,0-0.6-0.1-0.8-0.2c-0.2-0.1-0.5-0.3-0.6-0.5v0.6h-1.9v-7h1.9v2.5c0.2-0.2,0.4-0.4,0.6-0.5
			c0.2-0.1,0.5-0.2,0.8-0.2C361.8,264.8,362.2,264.9,362.6,265.1z M361.6,268.2c0.2-0.2,0.3-0.5,0.3-0.8c0-0.3-0.1-0.6-0.3-0.8
			s-0.4-0.3-0.7-0.3c-0.3,0-0.5,0.1-0.7,0.3c-0.2,0.2-0.3,0.5-0.3,0.8c0,0.3,0.1,0.6,0.3,0.8c0.2,0.2,0.4,0.3,0.7,0.3
			C361.2,268.5,361.4,268.4,361.6,268.2z"/>
		<path d="M366.1,262.7c0.2,0.2,0.3,0.4,0.3,0.7c0,0.3-0.1,0.5-0.3,0.7c-0.2,0.2-0.4,0.3-0.7,0.3s-0.5-0.1-0.7-0.3
			c-0.2-0.2-0.3-0.4-0.3-0.7c0-0.3,0.1-0.5,0.3-0.7c0.2-0.2,0.4-0.3,0.7-0.3S365.9,262.5,366.1,262.7z M364.5,264.9h1.9v5.1h-1.9
			V264.9z"/>
		<path d="M372.8,263v7h-1.9v-0.6c-0.2,0.2-0.4,0.4-0.6,0.5c-0.2,0.1-0.5,0.2-0.8,0.2c-0.5,0-0.9-0.1-1.2-0.3
			c-0.4-0.2-0.6-0.5-0.8-0.9c-0.2-0.4-0.3-0.9-0.3-1.4c0-0.5,0.1-1,0.3-1.4s0.5-0.7,0.8-0.9c0.4-0.2,0.8-0.3,1.2-0.3
			c0.3,0,0.6,0.1,0.8,0.2c0.2,0.1,0.5,0.3,0.6,0.5V263H372.8z M370.7,268.3c0.2-0.2,0.3-0.5,0.3-0.8c0-0.3-0.1-0.6-0.3-0.8
			c-0.2-0.2-0.4-0.3-0.7-0.3c-0.3,0-0.5,0.1-0.7,0.3c-0.2,0.2-0.3,0.5-0.3,0.8c0,0.3,0.1,0.6,0.3,0.8c0.2,0.2,0.4,0.3,0.7,0.3
			C370.3,268.6,370.5,268.5,370.7,268.3z"/>
		<path d="M379.3,263v7h-1.9v-0.6c-0.2,0.2-0.4,0.4-0.6,0.5c-0.2,0.1-0.5,0.2-0.8,0.2c-0.5,0-0.9-0.1-1.2-0.3
			c-0.4-0.2-0.6-0.5-0.8-0.9c-0.2-0.4-0.3-0.9-0.3-1.4c0-0.5,0.1-1,0.3-1.4c0.2-0.4,0.5-0.7,0.8-0.9c0.4-0.2,0.8-0.3,1.2-0.3
			c0.3,0,0.6,0.1,0.8,0.2c0.2,0.1,0.5,0.3,0.6,0.5V263H379.3z M377.1,268.3c0.2-0.2,0.3-0.5,0.3-0.8c0-0.3-0.1-0.6-0.3-0.8
			c-0.2-0.2-0.4-0.3-0.7-0.3c-0.3,0-0.5,0.1-0.7,0.3c-0.2,0.2-0.3,0.5-0.3,0.8c0,0.3,0.1,0.6,0.3,0.8c0.2,0.2,0.4,0.3,0.7,0.3
			C376.7,268.6,377,268.5,377.1,268.3z"/>
		<path d="M384.8,265.5c0.5,0.5,0.7,1.2,0.7,2c0,0.1,0,0.2,0,0.3H382c0.1,0.2,0.2,0.4,0.4,0.6c0.2,0.1,0.4,0.2,0.6,0.2
			c0.4,0,0.8-0.2,1.1-0.5l1,1c-0.3,0.3-0.6,0.5-1,0.7c-0.4,0.2-0.8,0.2-1.3,0.2c-0.6,0-1.1-0.1-1.5-0.3s-0.7-0.5-1-0.9
			c-0.2-0.4-0.3-0.8-0.3-1.4c0-0.5,0.1-1,0.3-1.4s0.5-0.7,1-0.9c0.4-0.2,0.9-0.3,1.4-0.3C383.6,264.8,384.3,265,384.8,265.5z
			 M383.4,266.3c-0.1-0.2-0.3-0.2-0.6-0.2c-0.2,0-0.4,0.1-0.5,0.2c-0.1,0.2-0.2,0.4-0.3,0.6h1.6
			C383.6,266.7,383.5,266.5,383.4,266.3z"/>
		<path d="M390.7,265c0.3,0.2,0.5,0.4,0.6,0.7c0.2,0.3,0.2,0.6,0.2,1v3.2h-1.9v-2.7c0-0.3-0.1-0.5-0.2-0.6c-0.1-0.2-0.3-0.2-0.5-0.2
			c-0.3,0-0.5,0.1-0.6,0.3c-0.2,0.2-0.2,0.4-0.2,0.7v2.5h-1.9v-5.1h1.9v0.8c0.2-0.3,0.4-0.5,0.7-0.6c0.3-0.1,0.6-0.2,0.9-0.2
			C390.1,264.8,390.4,264.9,390.7,265z"/>
	</g>
</g>
</svg>
